<svg xmlns="http://www.w3.org/2000/svg" width="400" height="96" viewBox="0 0 400 96" fill="none"><path d="M369.253 95.8001C362.923 95.8001 351.942 94.6374 346.774 91.7952C347.161 85.9817 347.937 76.1633 348.453 71.1249H349.229L368.349 93.7331H369.511C372.612 93.7331 375.454 91.1493 375.454 86.6277C375.454 72.2876 347.161 72.8044 347.161 53.8135C347.161 39.861 359.564 33.5308 378.296 33.5308C385.402 33.5308 391.861 34.6935 398.321 37.5356C398.062 42.9616 397.287 52.0049 396.77 57.3016H396.124L377.263 35.5978H377.004C373.258 35.5978 371.707 38.8275 371.707 42.0573C371.707 55.2346 400 57.56 400 78.3595C400 91.2785 387.985 95.8001 369.253 95.8001Z" fill="black"></path><path d="M344.431 89.2114L344.819 90.1158C341.718 94.1207 336.422 95.8001 329.704 95.8001C320.66 95.8001 314.33 92.9579 311.617 88.0487C308 92.8288 301.024 95.8001 293.918 95.8001C283.195 95.8001 276.865 89.9866 276.865 80.4266C276.865 68.1535 287.459 61.6941 310.196 60.0146V47.4832C310.196 39.3443 308.646 35.5978 305.416 35.5978H304.641L284.358 60.1438H283.712C282.55 50.4546 282.162 45.5454 281.645 36.8897C288.363 34.8227 295.856 33.5308 305.029 33.5308C327.12 33.5308 336.034 42.1865 336.034 55.3638V84.5606C336.034 88.0487 338.101 89.9866 340.814 89.9866C341.848 89.9866 343.01 89.7282 344.431 89.2114ZM301.799 77.4552C301.799 84.6898 304.253 87.4028 307.483 87.4028C308.517 87.4028 309.163 87.4028 310.196 86.6277V62.2108C304.512 63.8903 301.799 69.3163 301.799 77.4552Z" fill="black"></path><path d="M272.578 86.8861L273.611 88.3071C270.511 92.5704 263.922 95.8001 255.396 95.8001C242.864 95.8001 234.984 88.8239 234.984 75.259V37.5357H226.199V36.2438L236.017 33.014C242.347 26.8129 251.907 18.2864 260.176 11.181H260.822V34.8227H273.224V37.5357H260.822V81.5893C260.822 86.3693 262.889 89.0823 266.635 89.0823C268.573 89.0823 270.769 88.4363 272.578 86.8861Z" fill="black"></path><path d="M203.426 59.1103L221.9 90.245C224.872 91.4077 227.068 92.5704 229.652 93.8623V94.5082H184.048V93.8623C187.148 92.4412 189.344 91.4077 192.574 90.245L181.076 70.8666L171.516 83.6563C173.971 86.6277 177.201 91.1493 179.397 94.3791V94.5082H154.98V94.3791C157.951 91.5369 163.119 87.1444 168.028 83.6563L179.526 68.5412L162.99 40.7654C161.052 38.9567 159.243 37.1481 157.047 34.9519V34.8227H198.258V34.9519C196.579 36.7605 194.641 38.5692 192.316 40.3778L202.005 56.6557L210.144 45.8038C207.302 42.4449 204.46 38.44 202.263 34.9519V34.8227H226.68V34.9519C223.838 37.6648 217.766 42.9616 213.89 45.8038L203.426 59.1103Z" fill="black"></path><path d="M137.865 30.0427C128.951 30.0427 122.879 23.7124 122.879 15.0567C122.879 6.40096 128.951 0.199867 137.865 0.199867C146.779 0.199867 152.981 6.40096 152.981 15.0567C152.981 23.7124 146.779 30.0427 137.865 30.0427ZM150.914 88.9531C153.11 91.0201 154.272 92.5704 155.564 94.379V94.5082H119.262V94.379C120.942 92.5704 122.492 91.0201 125.076 88.9531V47.7416L119.262 42.4449V41.6697C127.143 38.5692 141.999 34.8227 150.914 33.4016V88.9531Z" fill="black"></path><path d="M101.543 16.4778L105.031 89.0823C107.744 90.8909 109.94 92.5704 112.007 94.3791V94.5082H72.3461V94.3791C74.284 92.4412 76.2218 90.8909 78.9348 89.0823L76.2218 20.6118H75.9635L50.5131 93.6039H41.2115L17.5698 19.3199L13.8233 82.8812C18.3449 86.6277 22.479 90.6326 25.8379 94.3791V94.5082H0V94.3791C3.10055 90.7618 7.62218 86.2401 11.3687 82.8812L15.3736 16.6069C12.0146 14.2815 9.81841 12.7313 7.23461 10.4058V10.2767H41.3407L57.7477 65.4406L76.8678 10.2767H109.553V10.4058C107.227 12.6021 104.773 14.5399 101.543 16.4778Z" fill="black"></path></svg>